<?xml version="1.0" standalone="no"?><!DOCTYPE svg PUBLIC "-//W3C//DTD SVG 1.1//EN" "http://www.w3.org/Graphics/SVG/1.1/DTD/svg11.dtd"><svg t="1649787504601" class="icon" viewBox="0 0 1024 1024" version="1.1" xmlns="http://www.w3.org/2000/svg" p-id="25987" xmlns:xlink="http://www.w3.org/1999/xlink" width="16" height="16"><defs><style type="text/css">@font-face { font-family: feedback-iconfont; src: url("//at.alicdn.com/t/font_1031158_u69w8yhxdu.woff2?t=1630033759944") format("woff2"), url("//at.alicdn.com/t/font_1031158_u69w8yhxdu.woff?t=1630033759944") format("woff"), url("//at.alicdn.com/t/font_1031158_u69w8yhxdu.ttf?t=1630033759944") format("truetype"); }
</style></defs><path d="M205.4 237.5h86c4.9 0 8.9-3.9 8.9-8.7 0 0-1.1-72.1-1.1-92.1v-0.2c0-16.5 3.5-30.8 9.7-42.8l2.9-5.4c-0.4 0.1-0.7 0.2-1 0.5l-167 162c-0.3 0.2-0.5 0.6-0.6 0.9 3.5-1.7 8.2-4 8.8-4.2 14.6-6.4 32.2-10 53.4-10z m668.9-17.6c-6.8-35.8-28.6-53.4-48.2-60.3-21.2-7.5-64.2-15.3-118.2-21.5-43.4-5-94.5-4.6-125.4-3.7-3.7-24.8-21.5-47.5-41.4-55.3-53-20.9-135-15.8-156-10.1-16.7 4.6-35.2 13.9-45.5 28.4-6.9 9.7-11.4 22-11.4 39.3 0 9.8 0.3 32.8 0.5 53.2 0.2 20.5 0.5 38.8 0.5 39 0 18.3-15.1 33.1-33.9 33.1h-86c-18.3 0-32.3 3-43.1 7.8-10.7 4.8-18.3 11.2-24.1 18.8-11.5 15.1-13.5 33.7-13.4 52.7 0 0 0.2 15.5 4 45.5 3.2 23.2 28.9 185.6 53.4 235 9.5 19.2 15.8 27.2 34.4 35.7 41.5 17.4 136.4 36.7 180.9 42.3 44.4 5.6 72.2 17.2 88.8-16.8 0.1-0.1 3.3-8.5 7.8-20.8 14.4-42.7 16.4-80.6 16.4-108 0-2.8 4.2-2.9 4.2 0 0 19.4-3.8 87.9 49.1 106.3 20.9 7.2 64.2 13.7 108.3 18.8 39.8 4.5 68.7 19.8 68.7 119.7 0 60.8-13.1 69.1-81.3 69.1-55.3 0-76.4 1.4-76.4-41.6 0-34.8 35.2-31.1 61.2-31.1 11.6 0 3.2-8.5 3.2-29.9 0-21.3 13.6-33.7 0.7-34-90-2.4-143-0.1-143 110.1 0 100 39.1 118.6 166.9 118.6 100.2 0 135.5-3.2 176.9-128.8 8.2-24.8 28-100.4 40-227.5 7.8-80.4-6.9-322.8-18.6-384zM699.6 487.8c-11.8-0.4-23.7 0.3-35.4 2.1 3.1-24.7 13.5-55 50.4-53.7 40.8 1.4 46.6 39.1 46.7 64.7-17.1-7.5-38.5-12.3-61.7-13.1z" p-id="25988" fill="#ffffff"></path></svg>