<?xml version="1.0" standalone="no"?><!DOCTYPE svg PUBLIC "-//W3C//DTD SVG 1.1//EN" "http://www.w3.org/Graphics/SVG/1.1/DTD/svg11.dtd"><svg t="1649787697748" class="icon" viewBox="0 0 1024 1024" version="1.1" xmlns="http://www.w3.org/2000/svg" p-id="26229" xmlns:xlink="http://www.w3.org/1999/xlink" width="16" height="16"><defs><style type="text/css">@font-face { font-family: feedback-iconfont; src: url("//at.alicdn.com/t/font_1031158_u69w8yhxdu.woff2?t=1630033759944") format("woff2"), url("//at.alicdn.com/t/font_1031158_u69w8yhxdu.woff?t=1630033759944") format("woff"), url("//at.alicdn.com/t/font_1031158_u69w8yhxdu.ttf?t=1630033759944") format("truetype"); }
</style></defs><path d="M317.330516 195.859415v-136.381798S331.726372 0 376.050457 0h125.774324s92.057714 4.924898 92.057714 76.525342c-1.136515 1.515353 200.784314 0 200.784314 0S928.775577 53.416204 928.775577 272.763596v315.193489s-7.197928 434.527562-167.446541 434.527562c0 1.136515-142.443211 0-142.443211 0s-100.392157-4.924898-100.392157-76.904181v-93.573067s8.334443-85.238624 67.054384-85.238624c1.136515 1.136515 83.72327 0 83.72327 0v68.190899h-50.385497a30.307066 30.307066 0 0 0-25.00333 34.09545s-7.197928 51.143174 25.00333 51.143174h117.439881a49.248983 49.248983 0 0 0 41.672216-42.808731v-93.573067a93.345764 93.345764 0 0 0-92.057713-85.238624c1.136515 0-159.112098 4.924898-159.112098-85.238623v-51.143175s-8.334443-20.45727-16.668886 0c0 2.651868 17.805401 170.477248-75.388828 162.142805-1.136515 1.136515-175.780984-24.624491-201.163152-34.09545 0 0-78.798372 2.27303-100.392157-136.381798 0 0-32.201258-163.279319-33.337772-204.572697 1.136515 0-28.791713-120.470588 50.006659-119.334073 0 1.136515 134.108768 0 134.108768 0s23.866815 6.061413 33.337773-34.09545z m376.944136 298.145764a84.746134 84.746134 0 0 1 92.057714 0c18.563078 10.607473 5.682575-76.525342-41.672217-76.525342s-69.706252 57.204587-50.385497 76.525342zM275.6583 51.143174v144.716241H141.549532l-16.668887 8.713282L283.992743 34.09545z" fill="#00b548" p-id="26230"></path></svg>