<?xml version="1.0" standalone="no"?><!DOCTYPE svg PUBLIC "-//W3C//DTD SVG 1.1//EN" "http://www.w3.org/Graphics/SVG/1.1/DTD/svg11.dtd"><svg t="1649774397055" class="icon" viewBox="0 0 1024 1024" version="1.1" xmlns="http://www.w3.org/2000/svg" p-id="27323" xmlns:xlink="http://www.w3.org/1999/xlink" width="16" height="16"><defs><style type="text/css">@font-face { font-family: feedback-iconfont; src: url("//at.alicdn.com/t/font_1031158_u69w8yhxdu.woff2?t=1630033759944") format("woff2"), url("//at.alicdn.com/t/font_1031158_u69w8yhxdu.woff?t=1630033759944") format("woff"), url("//at.alicdn.com/t/font_1031158_u69w8yhxdu.ttf?t=1630033759944") format("truetype"); }
</style></defs><path d="M832 480h-80c3.2-276.8 134.4-288 144-288-368 0-352 352-352 352v224c0 35.2 28.8 64 64 64h224c35.2 0 64-28.8 64-64V544c0-35.2-28.8-64-64-64zM480 192zM480 192C112 192 128 544 128 544v224c0 35.2 28.8 64 64 64h224c35.2 0 64-28.8 64-64V544c0-35.2-28.8-64-64-64h-80c3.2-276.8 134.4-288 144-288zM896 192z" p-id="27324" fill="#00b548"></path></svg>